#N canvas 26 103 1280 473 10;
#X declare -lib mrpeach;
#X obj 34 -49 hsl 128 15 1 20 0 0 heightOfRow-slider-value empty heightOfRow
-2 -8 0 10 -262144 -1 -1 0 1;
#N canvas 717 629 385 355 osc-connection 0;
#X obj 61 177 udpsend;
#X obj 151 39 loadbang;
#X msg 142 120 disconnect;
#X obj 57 107 packOSC;
#X obj 59 229 tgl 15 0 empty empty connected 17 7 0 10 -262144 -1 -1
1 1;
#X obj 57 74 r toOSC;
#X msg 143 88 connect 127.0.0.1 12345;
#X obj 44 15 import mrpeach;
#X obj 211 39 inlet;
#X connect 0 0 4 0;
#X connect 1 0 6 0;
#X connect 2 0 0 0;
#X connect 3 0 0 0;
#X connect 5 0 3 0;
#X connect 6 0 0 0;
#X connect 8 0 6 0;
#X restore 30 -132 pd osc-connection;
#X msg 30 -174 bang establish connection;
#X obj 31 44 osc-out heightOfRow;
#X obj 31 -19 int;
#X floatatom 31 13 8 0 0 0 - - -;
#X obj 254 -49 hsl 128 15 1 200 0 0 empty empty zaxisSlice -2 -8 0
10 -262144 -1 -1 0 1;
#X obj 251 -19 int;
#X floatatom 251 13 8 0 0 0 - - -;
#X text 196 -175 click to reconnect to running app;
#X text 29 -235 Parametric Tweaker for the Chippendale BEAMS Festival
2014;
#X text 29 -219 by Pier;
#X text 30 -92 For 2D slit scan;
#X obj 653 -50 hsl 128 15 1 255 0 0 empty empty depthThreshold -2 -8
0 10 -262144 -1 -1 7100 1;
#X obj 650 -19 int;
#X floatatom 650 13 8 0 0 0 - - -;
#X text 648 -92 For z distance background removal;
#X obj 650 43 osc-out depthThreshold;
#X obj 251 43 osc-out zaxisSlice;
#X obj 428 -50 hsl 128 15 1 30 0 0 empty empty zaxisThreshold -2 -8
0 10 -262144 -1 -1 0 1;
#X obj 425 -20 int;
#X floatatom 425 12 8 0 0 0 - - -;
#X text 356 -92 For Kinect Zaxis;
#X obj 425 42 osc-out zaxisThreshold;
#X obj 918 -174 hsl 128 15 3 50 0 0 empty empty testInt1 -2 -8 0 10
-262144 -1 -1 0 1;
#X obj 915 -143 int;
#X floatatom 915 -111 8 0 0 0 - - -;
#X text 913 -215 TESTER VALUES;
#X text 493 -152 comment;
#X obj 915 -81 osc-out testInt1;
#X obj 1075 -174 hsl 128 15 0 255 0 0 empty empty testInt2 -2 -8 0
10 -262144 -1 -1 0 1;
#X obj 1072 -143 int;
#X floatatom 1072 -111 8 0 0 0 - - -;
#X obj 1072 -81 osc-out testInt2;
#X obj 916 -16 hsl 80 15 0 1 0 0 empty empty testFloat1 -2 -8 0 10
-262144 -1 -1 0 1;
#X floatatom 913 12 8 0 0 0 - - -;
#X obj 1075 -16 hsl 80 15 0 1 0 0 empty empty testFloat2 -2 -8 0 10
-262144 -1 -1 0 1;
#X floatatom 1072 12 8 0 0 0 - - -;
#X obj 913 46 osc-out testFloat1;
#X obj 1072 46 osc-out testFloat2;
#X obj 33 110 hsl 128 15 2 50 0 0 empty empty posterizeLevel -2 -8
0 10 -262144 -1 -1 0 1;
#X obj 30 140 int;
#X floatatom 30 172 8 0 0 0 - - -;
#X text 32 84 comment;
#X obj 30 203 osc-out posterizeLevel;
#X obj 345 132 hsl 128 15 3 50 0 0 empty empty erosion -2 -8 0 10 -262144
-1 -1 1400 1;
#X obj 342 163 int;
#X floatatom 342 195 8 0 0 0 - - -;
#X obj 342 225 osc-out erosionValue;
#X text 340 96 MORPHOLOGICAL FILTERS;
#X obj 512 132 hsl 128 15 3 50 0 0 empty empty dilation -2 -8 0 10
-262144 -1 -1 0 1;
#X obj 509 163 int;
#X floatatom 509 195 8 0 0 0 - - -;
#X obj 509 225 osc-out dilationValue;
#X obj 674 132 hsl 128 15 3 50 0 0 empty empty opening -2 -8 0 10 -262144
-1 -1 0 1;
#X obj 671 163 int;
#X floatatom 671 195 8 0 0 0 - - -;
#X obj 671 225 osc-out openingValue;
#X obj 828 131 hsl 128 15 3 50 0 0 empty empty closing -2 -8 0 10 -262144
-1 -1 0 1;
#X obj 825 162 int;
#X floatatom 825 194 8 0 0 0 - - -;
#X obj 825 224 osc-out closingValue;
#X connect 0 0 4 0;
#X connect 2 0 1 0;
#X connect 4 0 5 0;
#X connect 5 0 3 0;
#X connect 6 0 7 0;
#X connect 7 0 8 0;
#X connect 8 0 18 0;
#X connect 13 0 14 0;
#X connect 14 0 15 0;
#X connect 15 0 17 0;
#X connect 19 0 20 0;
#X connect 20 0 21 0;
#X connect 21 0 23 0;
#X connect 24 0 25 0;
#X connect 25 0 26 0;
#X connect 26 0 29 0;
#X connect 30 0 31 0;
#X connect 31 0 32 0;
#X connect 32 0 33 0;
#X connect 34 0 35 0;
#X connect 35 0 38 0;
#X connect 36 0 37 0;
#X connect 37 0 39 0;
#X connect 40 0 41 0;
#X connect 41 0 42 0;
#X connect 42 0 44 0;
#X connect 45 0 46 0;
#X connect 46 0 47 0;
#X connect 47 0 48 0;
#X connect 50 0 51 0;
#X connect 51 0 52 0;
#X connect 52 0 53 0;
#X connect 54 0 55 0;
#X connect 55 0 56 0;
#X connect 56 0 57 0;
#X connect 58 0 59 0;
#X connect 59 0 60 0;
#X connect 60 0 61 0;
