#N canvas 1178 417 398 469 10;
#X obj -63 239 inlet;
#X obj -42 96 makesymbol \$1;
#X msg 10 258 /control/heightOfRow \$1;
#X msg -58 174 adddollar 1;
#X obj -17 136 t b s;
#X obj -76 38 loadbang;
#X obj 10 314 send toOSC;
#X msg -11 56 bang;
#X msg 22 173 set /\$1;
#X connect 0 0 2 0;
#X connect 1 0 4 0;
#X connect 2 0 6 0;
#X connect 3 0 2 0;
#X connect 4 0 3 0;
#X connect 4 1 8 0;
#X connect 5 0 1 0;
#X connect 7 0 1 0;
#X connect 8 0 2 0;
